 http://www.imdb.com/title/tt0300195/


Full-Length Holiday Movie.

Join Mickey and all of your favorite Disney animated superstar - together for the first time ever - as they share a heartwarming holiday celebration and sing a special song, "The Best Christmas Of All," that captures this wondrous occasion.

When a huge snowstorm leaves everyone stranded, Mickey and all of his guests at the House Of Mouse, including Pooh, Piglet, Belle, Snow White, Ariel and many more of his old and new friends, break out the cookies and hot chocolate to help Donald mend his tattered Christmas spirit. The fun starts when Minnie pulls out their favorite holiday home movies and everyone starts to reminisce.

As everybody lifts their voices in joyful song, they realize that the "Best Christmas Of All" is the one you share with all of your friends!

Format : MPEG-4
Format profile : Base Media / Version 2
Codec ID : mp42
File size : 697 MiB
Duration : 59mn 12s
Overall bit rate : 1 647 Kbps
Encoded date : UTC 2009-10-24 14:23:14
Tagged date : UTC 2009-10-24 17:13:25
Writing application : HandBrake 0.9.3 2008112300

Video
ID : 1
Format : AVC
Format/Info : Advanced Video Codec
Format profile : Main@L4.0
Format settings, CABAC : Yes
Format settings, ReFrames : 3 frames
Codec ID : avc1
Codec ID/Info : Advanced Video Coding
Duration : 59mn 12s
Bit rate mode : Variable
Bit rate : 1 162 Kbps
Width : 706 pixels
Height : 576 pixels
Display aspect ratio : 4:3
Original display aspect ratio : 4:3
Frame rate mode : Variable
Frame rate : 25.000 fps
Minimum frame rate : 12.500 fps
Maximum frame rate : 25.000 fps
Resolution : 24 bits
Colorimetry : 4:2:0
Scan type : Progressive
Bits/(Pixel*Frame) : 0.114
Stream size : 492 MiB (71%)
Writing library : x264 core 65


Audio #1
ID : 2
Format : AAC
Format/Info : Advanced Audio Codec
Format version : Version 4
Format profile : LC
Format settings, SBR : No
Codec ID : 40
Duration : 59mn 11s
Bit rate mode : Variable
Bit rate : 160 Kbps
Maximum bit rate : 247 Kbps
Channel(s) : 2 channels
Channel positions : L R
Sampling rate : 48.0 KHz
Resolution : 16 bits
Stream size : 67.6 MiB (10%)
Language : English
Encoded date : UTC 2009-10-24 14:23:14
Tagged date : UTC 2009-10-24 17:13:18

Audio #2
ID : 3
Format : AAC
Format/Info : Advanced Audio Codec
Format version : Version 4
Format profile : LC
Format settings, SBR : No
Codec ID : 40
Duration : 59mn 11s
Bit rate mode : Variable
Bit rate : 159 Kbps
Maximum bit rate : 200 Kbps
Channel(s) : 2 channels
Channel positions : L R
Sampling rate : 48.0 KHz
Resolution : 16 bits
Stream size : 67.5 MiB (10%)
Language : Danish
Encoded date : UTC 2009-10-24 14:23:14
Tagged date : UTC 2009-10-24 17:13:18

Audio #3
ID : 4
Format : AAC
Format/Info : Advanced Audio Codec
Format version : Version 4
Format profile : LC
Format settings, SBR : No
Codec ID : 40
Duration : 59mn 11s
Bit rate mode : Variable
Bit rate : 159 Kbps
Maximum bit rate : 199 Kbps
Channel(s) : 2 channels
Channel positions : L R
Sampling rate : 48.0 KHz
Resolution : 16 bits
Stream size : 67.5 MiB (10%)
Language : Norwegian
Encoded date : UTC 2009-10-24 14:23:14 